<?xml version="1.0" encoding="UTF-8" standalone="no"?>
<svg
   width="55.082611"
   height="59.007259"
   viewBox="0 0 55.73248 59.703432"
   class="css-1j8o68f"
   version="1.1"
   id="svg11"
   sodipodi:docname="logo.svg"
   inkscape:version="1.2.2 (b0a8486541, 2022-12-01)"
   inkscape:export-filename="../logo.svg"
   inkscape:export-xdpi="112.73"
   inkscape:export-ydpi="112.73"
   xmlns:inkscape="http://www.inkscape.org/namespaces/inkscape"
   xmlns:sodipodi="http://sodipodi.sourceforge.net/DTD/sodipodi-0.dtd"
   xmlns="http://www.w3.org/2000/svg"
   xmlns:svg="http://www.w3.org/2000/svg">
  <sodipodi:namedview
     id="namedview13"
     pagecolor="#ffffff"
     bordercolor="#666666"
     borderopacity="1.0"
     inkscape:showpageshadow="2"
     inkscape:pageopacity="0.0"
     inkscape:pagecheckerboard="0"
     inkscape:deskcolor="#d1d1d1"
     showgrid="false"
     inkscape:zoom="3.4540237"
     inkscape:cx="190.93674"
     inkscape:cy="29.530776"
     inkscape:window-width="1920"
     inkscape:window-height="1011"
     inkscape:window-x="0"
     inkscape:window-y="32"
     inkscape:window-maximized="1"
     inkscape:current-layer="svg11" />
  <defs
     id="SvgjsDefs1718" />
  <g
     id="SvgjsG1719"
     featurekey="symbolFeature-0"
     transform="matrix(0.62143171,0,0,0.62143171,-3.7285903,-1.1968774)"
     fill="#222831"
     style="fill:#000000;fill-opacity:1">
    <g
       id="g5"
       style="fill:#000000;fill-opacity:1">
      <path
         fill="#222831"
         d="m 34.925,10.071 c -0.779,1.714 -1.246,3.667 -1.228,5.8 0.008,1.946 0.404,3.779 1.096,5.393 L 17.031,31.04 C 12.703,25.27 10.839,19.628 11.502,14.239 12.265,8.013 16.256,3.646 18.115,1.926 Z M 83.702,31.04 C 88.036,25.244 89.884,19.575 89.188,14.166 88.391,7.932 84.409,3.621 82.552,1.926 l -16.751,8.169 c 0.763,1.669 1.201,3.577 1.201,5.62 0.021,1.99 -0.407,3.876 -1.142,5.567 z m 7.293,-3.748 c -1.245,2.606 -2.927,5.223 -5.043,7.835 L 84.813,36.516 63.478,24.845 c -1.646,1.616 -3.708,2.515 -5.84,2.521 l -14.496,0.083 c -2.265,0 -4.337,-0.979 -5.973,-2.619 L 15.927,36.516 14.798,35.135 C 12.852,32.755 11.307,30.374 10.09,27.995 7.554,31.19 6,35.015 6,39.19 V 78.022 C 6,89.05 16.365,98 29.154,98 H 72.548 C 85.33,98 95.684,89.05 95.684,78.022 V 39.19 c 0,-4.486 -1.797,-8.561 -4.689,-11.898 z M 43.142,22.816 h 0.015 l 14.458,-0.082 c 1.187,-0.008 2.096,-0.674 2.657,-1.231 1.32,-1.336 2.096,-3.484 2.068,-5.759 C 62.337,11.949 60.148,8.763 57.573,8.763 L 43.062,8.837 c -2.566,0.022 -4.726,3.232 -4.703,7.02 0.008,3.771 2.204,6.959 4.783,6.959 z"
         id="path3"
         style="fill:#000000;fill-opacity:1" />
    </g>
  </g>
</svg>
