<?xml version="1.0" encoding="UTF-8" standalone="no"?>
<svg
   width="365.95000000000005"
   height="59.00725383432256"
   viewBox="0 0 370.2675159235669 59.70342751388436"
   class="css-1j8o68f"
   version="1.1"
   id="svg11"
   sodipodi:docname="logo.svg"
   inkscape:version="1.2.2 (b0a8486541, 2022-12-01)"
   xmlns:inkscape="http://www.inkscape.org/namespaces/inkscape"
   xmlns:sodipodi="http://sodipodi.sourceforge.net/DTD/sodipodi-0.dtd"
   xmlns="http://www.w3.org/2000/svg"
   xmlns:svg="http://www.w3.org/2000/svg">
  <sodipodi:namedview
     id="namedview13"
     pagecolor="#ffffff"
     bordercolor="#666666"
     borderopacity="1.0"
     inkscape:showpageshadow="2"
     inkscape:pageopacity="0.0"
     inkscape:pagecheckerboard="0"
     inkscape:deskcolor="#d1d1d1"
     showgrid="false"
     inkscape:zoom="3.4540237"
     inkscape:cx="190.93674"
     inkscape:cy="29.530776"
     inkscape:window-width="1920"
     inkscape:window-height="1011"
     inkscape:window-x="0"
     inkscape:window-y="32"
     inkscape:window-maximized="1"
     inkscape:current-layer="svg11" />
  <defs
     id="SvgjsDefs1718" />
  <g
     id="SvgjsG1719"
     featurekey="symbolFeature-0"
     transform="matrix(0.6214317083358765,0,0,0.6214317083358765,-3.7285901952024965,-1.1968778224695147)"
     fill="#222831">
    <g
       id="g5">
      <path
         fill="#222831"
         d="M34.925,10.071c-0.779,1.714-1.246,3.667-1.228,5.8c0.008,1.946,0.404,3.779,1.096,5.393L17.031,31.04   c-4.328-5.77-6.192-11.412-5.529-16.801c0.763-6.226,4.754-10.593,6.613-12.313L34.925,10.071z M83.702,31.04   c4.334-5.796,6.182-11.465,5.486-16.874c-0.797-6.234-4.779-10.545-6.636-12.24l-16.751,8.169c0.763,1.669,1.201,3.577,1.201,5.62   c0.021,1.99-0.407,3.876-1.142,5.567L83.702,31.04z M90.995,27.292c-1.245,2.606-2.927,5.223-5.043,7.835l-1.139,1.389   L63.478,24.845c-1.646,1.616-3.708,2.515-5.84,2.521l-14.496,0.083c-2.265,0-4.337-0.979-5.973-2.619L15.927,36.516l-1.129-1.381   c-1.946-2.38-3.491-4.761-4.708-7.14C7.554,31.19,6,35.015,6,39.19v38.832C6,89.05,16.365,98,29.154,98h43.394   c12.782,0,23.136-8.95,23.136-19.978V39.19C95.684,34.704,93.887,30.629,90.995,27.292z M43.142,22.816h0.015l14.458-0.082   c1.187-0.008,2.096-0.674,2.657-1.231c1.32-1.336,2.096-3.484,2.068-5.759c-0.003-3.795-2.192-6.981-4.767-6.981L43.062,8.837   c-2.566,0.022-4.726,3.232-4.703,7.02C38.367,19.628,40.563,22.816,43.142,22.816z"
         id="path3" />
    </g>
  </g>
  <g
     id="SvgjsG1720"
     featurekey="nameFeature-0"
     transform="matrix(0.9753000736236572,0,0,0.9753000736236572,71.73325880688522,10.705092534742404)"
     fill="#222831">
    <path
       d="M21.875 22.891 l13.828 0 l0 -5.7813 l-13.828 0 l0 5.7813 z M35.703 27.422 l-5.7813 0.000076294 l0 5.3125 l-5.7031 0 c-1.9791 0 -3.75 -0.3125 -5.3125 -0.9375 c-1.5625 -0.57289 -2.9427 -1.4323 -4.1406 -2.5781 c-1.0938 -1.1979 -1.9531 -2.552 -2.5781 -4.0624 c-0.625 -1.4584 -0.9375 -3.1511 -0.9375 -5.0782 c0 -1.8229 0.3125 -3.5156 0.9375 -5.0781 c0.67711 -1.6666 1.5365 -3.0208 2.5781 -4.0624 c1.1459 -1.1459 2.5261 -2.0573 4.1407 -2.7345 c1.5625 -0.625 3.3334 -0.9375 5.3125 -0.9375 l11.406 0.078125 l0 -5.9375 l-11.406 -0.078125 c-2.9166 0 -5.5989 0.46875 -8.0469 1.4063 c-2.3959 0.9375 -4.4792 2.2396 -6.2501 3.9063 c-1.7188 1.6666 -3.099 3.6458 -4.1406 5.9374 c-0.9375 2.2396 -1.4063 4.6875 -1.4063 7.3438 s0.46875 5.1302 1.4063 7.4219 c1.0416 2.3959 2.4219 4.375 4.1406 5.9375 c1.5625 1.5625 3.6459 2.8906 6.25 3.9844 c2.5 0.9375 5.1823 1.4063 8.0469 1.4063 l11.484 0 l0 -11.25 z M63.281 16.875 l0 -15.547 l-6.5625 0 l0 37.344 l6.5625 0 l0 -21.797 z M86.0938 1.4059999999999988 l27.813 0 l0 5.9375 l-27.813 0 l0 -5.9375 z M86.0938 16.875 l5.9375 0 l0 21.719 l-5.9375 0 l0 -21.719 z M86.0938 16.875 l25.078 0 l0 5.8594 l-25.078 0 l0 -5.8594 z M143.281 7.5 l11.797 0 l0 -6.0938 l-30.156 0 l0 6.0938 l18.359 0 z M136.719 13.594000000000001 l6.5625 0 l0 25 l-6.5625 0 l0 -25 z  M222.42175 38.5937 l7.0313 0 l-13.594 -37.266 l-7.1094 0 l7.8906 22.266 z M193.67185 38.5937 l6.875 0 l8.125 -19.844 l-3.3594 -8.9063 z M265.15675 8.75 c-0.67711 -1.4584 -1.6147 -2.7605 -2.8126 -3.9063 c-1.25 -1.0938 -2.7344 -1.9531 -4.4531 -2.5781 c-1.875 -0.57289 -3.8541 -0.85938 -5.9375 -0.85938 l-14.609 0 l0 5.8594 l14.063 0 c2.3438 0 4.2969 0.57289 5.8594 1.7188 c1.4584 1.0938 2.1875 2.7604 2.1875 5 c0 2.0313 -0.70313 3.6719 -2.1094 4.9219 c-1.5104 1.1979 -3.4895 1.7969 -5.9374 1.7969 l-14.063 0 l0 17.891 l6.4844 0 l0 -11.953 l7.3438 0 c1.9271 0 3.8802 -0.28648 5.8594 -0.85938 c1.8229 -0.57289 3.3854 -1.3802 4.6875 -2.4218 c1.3541 -1.0416 2.4219 -2.3698 3.2031 -3.9844 c0.78125 -1.5625 1.1719 -3.3854 1.1719 -5.4688 c0 -1.9791 -0.3125 -3.6979 -0.9375 -5.1563 z M305.15675 8.75 c-0.67711 -1.4584 -1.6147 -2.7605 -2.8126 -3.9063 c-1.25 -1.0938 -2.7344 -1.9531 -4.4531 -2.5781 c-1.875 -0.57289 -3.8541 -0.85938 -5.9375 -0.85938 l-14.609 0 l0 5.8594 l14.063 0 c2.3438 0 4.2969 0.57289 5.8594 1.7188 c1.4584 1.0938 2.1875 2.7604 2.1875 5 c0 2.0313 -0.70313 3.6719 -2.1094 4.9219 c-1.5104 1.1979 -3.4895 1.7969 -5.9374 1.7969 l-14.063 0 l0 17.891 l6.4844 0 l0 -11.953 l7.3438 0 c1.9271 0 3.8802 -0.28648 5.8594 -0.85938 c1.8229 -0.57289 3.3854 -1.3802 4.6875 -2.4218 c1.3541 -1.0416 2.4219 -2.3698 3.2031 -3.9844 c0.78125 -1.5625 1.1719 -3.3854 1.1719 -5.4688 c0 -1.9791 -0.3125 -3.6979 -0.9375 -5.1563 z"
       id="path8" />
  </g>
</svg>
